<?xml version="1.0" encoding="UTF-8"?>
<svg id="ELEMENTS" xmlns="http://www.w3.org/2000/svg" xmlns:xlink="http://www.w3.org/1999/xlink" viewBox="0 0 100.07 93.76">
  <defs>
    <style>
      .cls-1 {
        fill: url(#Degradado_sin_nombre_5);
      }

      .cls-2 {
        fill: #fff;
        fill-rule: evenodd;
      }
    </style>
    <linearGradient id="Degradado_sin_nombre_5" data-name="Degradado sin nombre 5" x1="-27.41" y1="-39.54" x2="-6.01" y2="10.52" gradientTransform="translate(76.32 61.93) rotate(-21.85)" gradientUnits="userSpaceOnUse">
      <stop offset="0" stop-color="#ff4c3c"/>
      <stop offset=".96" stop-color="#ee053d"/>
      <stop offset="1" stop-color="#ee023e"/>
    </linearGradient>
  </defs>
  <path class="cls-1" d="M29.26,43.5c-4.47,6.65-6.11,15.83-1.94,22.67,2.9,4.76,8.15,7.7,13.57,9.01,5.42,1.31,11.06,1.17,16.63,1.03,8.17-.21,17.58-1.04,22.29-7.72,4.33-6.13,2.72-14.54.35-21.65-2.39-7.16-5.63-14.47-11.66-19.01-13.22-9.95-31.76,4.54-39.23,15.66Z"/>
  <path class="cls-2" d="M52.09,56.11c-.02.07-.04.14-.06.2-.94,3.69-1.05,4.52-2.02,6.23-.46.82-.98,1.59-1.56,2.33-.07.08-.13.19-.26.17-.14-.03-.15-.16-.17-.27-.16-1.12-.24-2.25-.2-3.38.05-1.48.23-1.98,2.13-9.99.03-.12,0-.22-.04-.33-.46-1.23-.55-2.48-.15-3.74.86-2.73,3.96-2.94,4.5-.69.33,1.39-.55,3.22-1.23,5.91-.56,2.22,2.06,3.8,4.29,2.18,2.06-1.5,2.86-5.08,2.71-7.63-.3-5.07-5.86-6.16-9.39-4.53-4.04,1.87-4.96,6.88-3.14,9.17.23.29.41.47.33.76-.12.46-.22.92-.35,1.38-.09.34-.38.46-.72.32-.67-.27-1.23-.7-1.69-1.26-1.55-1.92-1.99-5.72.06-8.93,2.27-3.56,6.49-5,10.35-4.56,4.61.52,7.52,3.67,8.06,7.24.25,1.63.07,5.64-2.21,8.47-2.63,3.26-6.88,3.47-8.85,1.47-.15-.15-.27-.33-.42-.52Z"/>
</svg>