<?xml version="1.0" encoding="UTF-8"?>
<svg id="ELEMENTS" xmlns="http://www.w3.org/2000/svg" xmlns:xlink="http://www.w3.org/1999/xlink" viewBox="0 0 99.08 100.95">
  <defs>
    <style>
      .cls-1 {
        fill: #fff;
      }

      .cls-2 {
        fill: url(#Degradado_sin_nombre_7);
      }
    </style>
    <linearGradient id="Degradado_sin_nombre_7" data-name="Degradado sin nombre 7" x1="-51.95" y1="34.26" x2="-30.54" y2="84.32" gradientTransform="translate(71.08 -14.32) rotate(-21.85)" gradientUnits="userSpaceOnUse">
      <stop offset="0" stop-color="red"/>
      <stop offset="1" stop-color="#9b0000"/>
    </linearGradient>
  </defs>
  <path class="cls-2" d="M28.71,44.88c-4.47,6.65-6.11,15.83-1.94,22.67,2.9,4.76,8.15,7.7,13.57,9.01,5.42,1.31,11.06,1.17,16.63,1.03,8.17-.21,17.58-1.04,22.29-7.72,4.33-6.13,2.72-14.54.35-21.65-2.39-7.16-5.63-14.47-11.66-19.01-13.22-9.95-31.76,4.54-39.23,15.66Z"/>
  <path class="cls-1" d="M64.74,50.42c0-2.81-2.27-5.08-5.08-5.08h-12.99c-2.81,0-5.08,2.27-5.08,5.08v6.04c0,2.81,2.27,5.08,5.08,5.08h12.99c2.81,0,5.08-2.27,5.08-5.08v-6.04ZM57.1,53.9l-5.82,2.88c-.23.12-1-.04-1-.3v-5.92c0-.26.78-.43,1.01-.3l5.58,3.03c.23.13.48.47.24.6Z"/>
</svg>