<?xml version="1.0" encoding="UTF-8"?>
<svg id="ELEMENTS" xmlns="http://www.w3.org/2000/svg" xmlns:xlink="http://www.w3.org/1999/xlink" viewBox="0 0 83.23 86.45">
  <defs>
    <style>
      .cls-1 {
        fill: #fff;
      }

      .cls-2 {
        fill: url(#Degradado_sin_nombre_10);
      }
    </style>
    <linearGradient id="Degradado_sin_nombre_10" data-name="Degradado sin nombre 10" x1="-44.73" y1="84.87" x2="-23.33" y2="134.93" gradientTransform="translate(37.3 -68.24) rotate(-21.85)" gradientUnits="userSpaceOnUse">
      <stop offset="0" stop-color="#007bb8"/>
      <stop offset="1" stop-color="#0044e9"/>
    </linearGradient>
  </defs>
  <path class="cls-2" d="M20.47,35.25c-4.47,6.65-6.11,15.83-1.94,22.67,2.9,4.76,8.15,7.7,13.57,9.01,5.42,1.31,11.06,1.17,16.63,1.03,8.17-.21,17.58-1.04,22.29-7.72,4.33-6.13,2.72-14.54.35-21.65-2.39-7.16-5.63-14.47-11.66-19.01-13.22-9.95-31.76,4.54-39.23,15.66Z"/>
  <g>
    <path class="cls-1" d="M35.38,37.83h4.1v13.16h-4.1v-13.16ZM37.43,31.29c1.31,0,2.37,1.06,2.37,2.37s-1.06,2.37-2.37,2.37-2.38-1.06-2.38-2.37,1.06-2.37,2.38-2.37"/>
    <path class="cls-1" d="M42.04,37.83h3.92v1.8h.05c.55-1.04,1.88-2.13,3.87-2.13,4.14,0,4.91,2.72,4.91,6.27v7.22h-4.09v-6.4c0-1.53-.03-3.49-2.13-3.49s-2.45,1.66-2.45,3.38v6.51h-4.09v-13.16Z"/>
  </g>
</svg>